<?xml version="1.0" encoding="UTF-8" standalone="no"?>
<!-- Created with matplotlib (http://matplotlib.sourceforge.net/) -->

<svg
   xmlns:dc="http://purl.org/dc/elements/1.1/"
   xmlns:cc="http://creativecommons.org/ns#"
   xmlns:rdf="http://www.w3.org/1999/02/22-rdf-syntax-ns#"
   xmlns:svg="http://www.w3.org/2000/svg"
   xmlns="http://www.w3.org/2000/svg"
   xmlns:xlink="http://www.w3.org/1999/xlink"
   xmlns:sodipodi="http://sodipodi.sourceforge.net/DTD/sodipodi-0.dtd"
   xmlns:inkscape="http://www.inkscape.org/namespaces/inkscape"
   width="576pt"
   height="432pt"
   viewBox="0 0 576 432"
   version="1.1"
   id="svg1"
   inkscape:version="0.48.0 r9654"
   sodipodi:docname="stevens_labelled.svg">
  <metadata
     id="metadata41742">
    <rdf:RDF>
      <cc:Work
         rdf:about="">
        <dc:format>image/svg+xml</dc:format>
        <dc:type
           rdf:resource="http://purl.org/dc/dcmitype/StillImage" />
      </cc:Work>
    </rdf:RDF>
  </metadata>
  <defs
     id="defs41740" />
  <sodipodi:namedview
     pagecolor="#ffffff"
     bordercolor="#666666"
     borderopacity="1"
     objecttolerance="10"
     gridtolerance="10"
     guidetolerance="10"
     inkscape:pageopacity="0"
     inkscape:pageshadow="2"
     inkscape:window-width="1280"
     inkscape:window-height="704"
     id="namedview41738"
     showgrid="false"
     inkscape:zoom="0.87253632"
     inkscape:cx="360"
     inkscape:cy="270"
     inkscape:window-x="0"
     inkscape:window-y="982"
     inkscape:window-maximized="0"
     inkscape:current-layer="svg1" />
  <filter
     id="colorAdd">
    <feComposite
       in="SourceGraphic"
       in2="BackgroundImage"
       operator="arithmetic"
       k2="1"
       k3="1"
       id="feComposite41602" />
  </filter>
  <g
     id="figure1">
    <g
       id="patch1">
      <path
         style="fill: none; opacity: 0.000000"
         d="M0.000000 432.000000L576.000000 432.000000L576.000000 0.000000 L0.000000 0.000000z"
         id="path41606" />
    </g>
    <g
       id="axes1">
      <g
         id="patch2">
        <path
           style="fill: none; opacity: 0.000000"
           d="M72.000000 388.800000L518.400000 388.800000L518.400000 43.200000 L72.000000 43.200000z"
           id="path41610" />
      </g>
      <g
         id="line2d1">
        <defs
           id="defs41613">
          <clipPath
             id="p50431ccdcb28178602d99d9270004dde">
            <rect
               x="72.000000"
               y="43.200000"
               width="446.400000"
               height="345.600000"
               id="rect41616" />
          </clipPath>
        </defs>
        <path
           style="fill: none; stroke: #000000; stroke-width: 1.000000; stroke-linejoin: round; stroke-linecap: square;  opacity: 1.000000"
           clip-path="url(#p50431ccdcb28178602d99d9270004dde)"
           d="M72.000000 388.800000L76.509091 385.309091L81.018182 381.818182 L85.527273 378.327273L90.036364 374.836364L94.545455 371.345455 L99.054545 367.854545L103.563636 364.363636L108.072727 360.872727 L112.581818 357.381818L117.090909 353.890909L121.600000 350.400000 L126.109091 346.909091L130.618182 343.418182L135.127273 339.927273 L139.636364 336.436364L144.145455 332.945455L148.654545 329.454545 L153.163636 325.963636L157.672727 322.472727L162.181818 318.981818 L166.690909 315.490909L171.200000 312.000000L175.709091 308.509091 L180.218182 305.018182L184.727273 301.527273L189.236364 298.036364 L193.745455 294.545455L198.254545 291.054545L202.763636 287.563636 L207.272727 284.072727L211.781818 280.581818L216.290909 277.090909 L220.800000 273.600000L225.309091 270.109091L229.818182 266.618182 L234.327273 263.127273L238.836364 259.636364L243.345455 256.145455 L247.854545 252.654545L252.363636 249.163636L256.872727 245.672727 L261.381818 242.181818L265.890909 238.690909L270.400000 235.200000 L274.909091 231.709091L279.418182 228.218182L283.927273 224.727273 L288.436364 221.236364L292.945455 217.745455L297.454545 214.254545 L301.963636 210.763636L306.472727 207.272727L310.981818 203.781818 L315.490909 200.290909L320.000000 196.800000L324.509091 193.309091 L329.018182 189.818182L333.527273 186.327273L338.036364 182.836364 L342.545455 179.345455L347.054545 175.854545L351.563636 172.363636 L356.072727 168.872727L360.581818 165.381818L365.090909 161.890909 L369.600000 158.400000L374.109091 154.909091L378.618182 151.418182 L383.127273 147.927273L387.636364 144.436364L392.145455 140.945455 L396.654545 137.454545L401.163636 133.963636L405.672727 130.472727 L410.181818 126.981818L414.690909 123.490909L419.200000 120.000000 L423.709091 116.509091L428.218182 113.018182L432.727273 109.527273 L437.236364 106.036364L441.745455 102.545455L446.254545 99.054545 L450.763636 95.563636L455.272727 92.072727L459.781818 88.581818 L464.290909 85.090909L468.800000 81.600000L473.309091 78.109091 L477.818182 74.618182L482.327273 71.127273L486.836364 67.636364 L491.345455 64.145455L495.854545 60.654545L500.363636 57.163636 L504.872727 53.672727L509.381818 50.181818L513.890909 46.690909 L518.400000 43.200000"
           id="path41618" />
      </g>
      <g
         id="line2d2">
        <path
           style="fill: none; stroke: #ff0000; stroke-width: 1.000000; stroke-linejoin: round; stroke-linecap: square;  opacity: 1.000000"
           clip-path="url(#p50431ccdcb28178602d99d9270004dde)"
           d="M72.000000 388.800000L76.509091 388.015477L81.018182 386.581033 L85.527273 384.723496L90.036364 382.523812L94.545455 380.028761 L99.054545 377.269907L103.563636 374.270422L108.072727 371.048260 L112.581818 367.617866L117.090909 363.991189L121.600000 360.178330 L126.109091 356.187972L130.618182 352.027685L135.127273 347.704147 L139.636364 343.223305L144.145455 338.590498L148.654545 333.810556 L153.163636 328.887878L157.672727 323.826488L162.181818 318.630087 L166.690909 313.302097L171.200000 307.845692L175.709091 302.263824 L180.218182 296.559254L184.727273 290.734565L189.236364 284.792187 L193.745455 278.734404L198.254545 272.563375L202.763636 266.281142 L207.272727 259.889639L211.781818 253.390703L216.290909 246.786081 L220.800000 240.077440L225.309091 233.266366L229.818182 226.354378 L234.327273 219.342929L238.836364 212.233410L243.345455 205.027155 L247.854545 197.725446L252.363636 190.329515L256.872727 182.840547 L261.381818 175.259685L265.890909 167.588028L270.400000 159.826639 L274.909091 151.976544L279.418182 144.038734L283.927273 136.014167 L288.436364 127.903772L292.945455 119.708448L297.454545 111.429065 L301.963636 103.066469L306.472727 94.621479L310.981818 86.094893 L315.490909 77.487482L320.000000 68.800000L324.509091 60.033177 L329.018182 51.187726L333.527273 42.264338L338.036364 33.263689 L342.545455 24.186437L347.054545 15.033222L351.563636 5.804670 L354.861707 -1.000000"
           id="path41621" />
      </g>
      <g
         id="line2d3">
        <path
           style="fill: none; stroke: #0000ff; stroke-width: 1.000000; stroke-linejoin: round; stroke-linecap: square;  opacity: 1.000000"
           clip-path="url(#p50431ccdcb28178602d99d9270004dde)"
           d="M72.000000 388.800000L76.509091 373.266435L81.018182 366.832222 L85.527273 361.895076L90.036364 357.732870L94.545455 354.065893 L99.054545 350.750692L103.563636 347.702050L108.072727 344.864444 L112.581818 342.199306L117.090909 339.678555L121.600000 337.280994 L126.109091 334.990153L130.618182 332.792936L135.127273 330.678722 L139.636364 328.638762L144.145455 326.665741L148.654545 324.753471 L153.163636 322.896666L157.672727 321.090761L162.181818 319.331786 L166.690909 317.616263L171.200000 315.941123L175.709091 314.303640 L180.218182 312.701385L184.727273 311.132176L189.236364 309.594050 L193.745455 308.085229L198.254545 306.604101L202.763636 305.149193 L207.272727 303.719161L211.781818 302.312771L216.290909 300.928888 L220.800000 299.566464L225.309091 298.224531L229.818182 296.902191 L234.327273 295.598611L238.836364 294.313014L243.345455 293.044675 L247.854545 291.792919L252.363636 290.557110L256.872727 289.336655 L261.381818 288.130994L265.890909 286.939604L270.400000 285.761988 L274.909091 284.597679L279.418182 283.446238L283.927273 282.307245 L288.436364 281.180306L292.945455 280.065046L297.454545 278.961110 L301.963636 277.868159L306.472727 276.785871L310.981818 275.713941 L315.490909 274.652077L320.000000 273.600000L324.509091 272.557445 L329.018182 271.524157L333.527273 270.499895L338.036364 269.484425 L342.545455 268.477524L347.054545 267.478980L351.563636 266.488588 L356.072727 265.506151L360.581818 264.531481L365.090909 263.564397 L369.600000 262.604723L374.109091 261.652292L378.618182 260.706943 L383.127273 259.768520L387.636364 258.836872L392.145455 257.911856 L396.654545 256.993332L401.163636 256.081164L405.672727 255.175223 L410.181818 254.275382L414.690909 253.381521L419.200000 252.493522 L423.709091 251.611270L428.218182 250.734656L432.727273 249.863572 L437.236364 248.997917L441.745455 248.137588L446.254545 247.282489 L450.763636 246.432527L455.272727 245.587608L459.781818 244.747646 L464.290909 243.912553L468.800000 243.082245L473.309091 242.256642 L477.818182 241.435665L482.327273 240.619236L486.836364 239.807280 L491.345455 238.999726L495.854545 238.196501L500.363636 237.397538 L504.872727 236.602769L509.381818 235.812129L513.890909 235.025554 L518.400000 234.242981"
           id="path41624" />
      </g>
      <g
         id="line2d4">
        <path
           style="fill: none; stroke: #008000; stroke-width: 1.000000; stroke-linejoin: round; stroke-linecap: square;  opacity: 1.000000"
           clip-path="url(#p50431ccdcb28178602d99d9270004dde)"
           d="M72.000000 388.800000L76.509091 380.250552L81.018182 374.911380 L85.527273 370.353118L90.036364 366.237870L94.545455 362.423504 L99.054545 358.832951L103.563636 355.418433L108.072727 352.147712 L112.581818 348.997729L117.090909 345.951256L121.600000 342.994991 L126.109091 340.118386L130.618182 337.312899L135.127273 334.571484 L139.636364 331.888245L144.145455 329.258183L148.654545 326.677011 L153.163636 324.141020L157.672727 321.646969L162.181818 319.192010 L166.690909 316.773618L171.200000 314.389543L175.709091 312.037770 L180.218182 309.716485L184.727273 307.424044L189.236364 305.158957 L193.745455 302.919862L198.254545 300.705516L202.763636 298.514773 L207.272727 296.346581L211.781818 294.199968L216.290909 292.074033 L220.800000 289.967939L225.309091 287.880907L229.818182 285.812213 L234.327273 283.761177L238.836364 281.727165L243.345455 279.709580 L247.854545 277.707863L252.363636 275.721487L256.872727 273.749954 L261.381818 271.792797L265.890909 269.849570L270.400000 267.919856 L274.909091 266.003255L279.418182 264.099390L283.927273 262.207902 L288.436364 260.328450L292.945455 258.460710L297.454545 256.604370 L301.963636 254.759136L306.472727 252.924725L310.981818 251.100867 L315.490909 249.287305L320.000000 247.483791L324.509091 245.690088 L329.018182 243.905969L333.527273 242.131216L338.036364 240.365619 L342.545455 238.608978L347.054545 236.861099L351.563636 235.121795 L356.072727 233.390887L360.581818 231.668203L365.090909 229.953575 L369.600000 228.246842L374.109091 226.547851L378.618182 224.856450 L383.127273 223.172495L387.636364 221.495846L392.145455 219.826368 L396.654545 218.163929L401.163636 216.508402L405.672727 214.859666 L410.181818 213.217600L414.690909 211.582090L419.200000 209.953023 L423.709091 208.330291L428.218182 206.713788L432.727273 205.103413 L437.236364 203.499066L441.745455 201.900649L446.254545 200.308070 L450.763636 198.721237L455.272727 197.140062L459.781818 195.564457 L464.290909 193.994339L468.800000 192.429626L473.309091 190.870239 L477.818182 189.316099L482.327273 187.767131L486.836364 186.223261 L491.345455 184.684418L495.854545 183.150530L500.363636 181.621531 L504.872727 180.097352L509.381818 178.577929L513.890909 177.063198 L518.400000 175.553097"
           id="path41627" />
      </g>
      <g
         id="matplotlib.axis1">
        <g
           id="text1">
          <defs
             id="defs41631">
            <path
               id="c_8e0810ad13fe20a2a87a2619799b154d"
               d="M44.281250 -53.078125l0.000000 8.500000q-3.796875 -1.953125 -7.906250 -2.921875q-4.093750 -0.984375 -8.500000 -0.984375q-6.687500 0.000000 -10.031250 2.046875q-3.343750 2.046875 -3.343750 6.156250q0.000000 3.125000 2.390625 4.906250q2.390625 1.781250 9.625000 3.390625l3.078125 0.687500q9.562500 2.046875 13.593750 5.781250q4.031250 3.734375 4.031250 10.421875q0.000000 7.625000 -6.031250 12.078125q-6.031250 4.437500 -16.578125 4.437500q-4.390625 0.000000 -9.156250 -0.859375q-4.765625 -0.859375 -10.031250 -2.562500l0.000000 -9.281250q4.984375 2.593750 9.812500 3.890625q4.828125 1.281250 9.578125 1.281250q6.343750 0.000000 9.750000 -2.171875q3.421875 -2.171875 3.421875 -6.125000q0.000000 -3.656250 -2.468750 -5.609375q-2.453125 -1.953125 -10.812500 -3.765625l-3.125000 -0.734375q-8.343750 -1.750000 -12.062500 -5.390625q-3.703125 -3.640625 -3.703125 -9.984375q0.000000 -7.718750 5.468750 -11.906250q5.468750 -4.203125 15.531250 -4.203125q4.968750 0.000000 9.359375 0.734375q4.406250 0.718750 8.109375 2.187500" />
            <path
               id="c_0f8c41144cfbf448378cb6fd1cc8e549"
               d="M18.312500 -70.218750l0.000000 15.531250l18.500000 0.000000l0.000000 6.984375l-18.500000 0.000000l0.000000 29.687500q0.000000 6.687500 1.828125 8.593750q1.828125 1.906250 7.453125 1.906250l9.218750 0.000000l0.000000 7.515625l-9.218750 0.000000q-10.406250 0.000000 -14.359375 -3.875000q-3.953125 -3.890625 -3.953125 -14.140625l0.000000 -29.687500l-6.593750 0.000000l0.000000 -6.984375l6.593750 0.000000l0.000000 -15.531250z" />
            <path
               id="c_6a63bda47b2f3da1cec6aadd80692cfe"
               d="M9.421875 -54.687500l8.984375 0.000000l0.000000 54.687500l-8.984375 0.000000zM9.421875 -75.984375l8.984375 0.000000l0.000000 11.390625l-8.984375 0.000000z" />
            <path
               id="c_4653c6dfde66c7610eae0911760d3490"
               d="M52.000000 -44.187500q3.375000 -6.062500 8.062500 -8.937500q4.687500 -2.875000 11.031250 -2.875000q8.546875 0.000000 13.187500 5.984375q4.640625 5.968750 4.640625 17.000000l0.000000 33.015625l-9.031250 0.000000l0.000000 -32.718750q0.000000 -7.859375 -2.796875 -11.656250q-2.781250 -3.812500 -8.484375 -3.812500q-6.984375 0.000000 -11.046875 4.640625q-4.046875 4.625000 -4.046875 12.640625l0.000000 30.906250l-9.031250 0.000000l0.000000 -32.718750q0.000000 -7.906250 -2.781250 -11.687500q-2.781250 -3.781250 -8.593750 -3.781250q-6.890625 0.000000 -10.953125 4.656250q-4.046875 4.656250 -4.046875 12.625000l0.000000 30.906250l-9.031250 0.000000l0.000000 -54.687500l9.031250 0.000000l0.000000 8.500000q3.078125 -5.031250 7.375000 -7.421875q4.296875 -2.390625 10.203125 -2.390625q5.968750 0.000000 10.140625 3.031250q4.171875 3.015625 6.171875 8.781250" />
            <path
               id="c_c438d87e693443c2861ebd6359e6491e"
               d="M8.500000 -21.578125l0.000000 -33.109375l8.984375 0.000000l0.000000 32.765625q0.000000 7.765625 3.015625 11.656250q3.031250 3.875000 9.093750 3.875000q7.265625 0.000000 11.484375 -4.640625q4.234375 -4.640625 4.234375 -12.656250l0.000000 -31.000000l8.984375 0.000000l0.000000 54.687500l-8.984375 0.000000l0.000000 -8.406250q-3.265625 4.984375 -7.593750 7.406250q-4.312500 2.421875 -10.031250 2.421875q-9.421875 0.000000 -14.312500 -5.859375q-4.875000 -5.859375 -4.875000 -17.140625" />
            <path
               id="c_5099edb83619131346ae654950954dea"
               d="M9.421875 -75.984375l8.984375 0.000000l0.000000 75.984375l-8.984375 0.000000z" />
            <path
               id="c_d41d8cd98f00b204e9800998ecf8427e"
               d="" />
            <path
               id="c_01d93a582460e35a7945ca50d148ffeb"
               d="M34.281250 -27.484375q-10.890625 0.000000 -15.093750 2.484375q-4.203125 2.484375 -4.203125 8.500000q0.000000 4.781250 3.156250 7.593750q3.156250 2.796875 8.562500 2.796875q7.484375 0.000000 12.000000 -5.296875q4.515625 -5.296875 4.515625 -14.078125l0.000000 -2.000000zM52.203125 -31.203125l0.000000 31.203125l-8.984375 0.000000l0.000000 -8.296875q-3.078125 4.968750 -7.671875 7.343750q-4.593750 2.375000 -11.234375 2.375000q-8.390625 0.000000 -13.359375 -4.718750q-4.953125 -4.718750 -4.953125 -12.625000q0.000000 -9.218750 6.171875 -13.906250q6.187500 -4.687500 18.437500 -4.687500l12.609375 0.000000l0.000000 -0.890625q0.000000 -6.203125 -4.078125 -9.593750q-4.078125 -3.390625 -11.453125 -3.390625q-4.687500 0.000000 -9.140625 1.125000q-4.437500 1.125000 -8.531250 3.375000l0.000000 -8.312500q4.921875 -1.906250 9.562500 -2.843750q4.640625 -0.953125 9.031250 -0.953125q11.875000 0.000000 17.734375 6.156250q5.859375 6.140625 5.859375 18.640625" />
            <path
               id="c_e3864de5dabf2f8dd9eee74726882ec1"
               d="M45.406250 -27.984375q0.000000 -9.765625 -4.031250 -15.125000q-4.015625 -5.375000 -11.296875 -5.375000q-7.218750 0.000000 -11.250000 5.375000q-4.031250 5.359375 -4.031250 15.125000q0.000000 9.718750 4.031250 15.093750q4.031250 5.375000 11.250000 5.375000q7.281250 0.000000 11.296875 -5.375000q4.031250 -5.375000 4.031250 -15.093750M54.390625 -6.781250q0.000000 13.953125 -6.203125 20.765625q-6.187500 6.812500 -18.984375 6.812500q-4.734375 0.000000 -8.937500 -0.703125q-4.203125 -0.703125 -8.156250 -2.171875l0.000000 -8.734375q3.953125 2.140625 7.812500 3.156250q3.859375 1.031250 7.859375 1.031250q8.843750 0.000000 13.234375 -4.609375q4.390625 -4.609375 4.390625 -13.937500l0.000000 -4.453125q-2.781250 4.843750 -7.125000 7.234375q-4.343750 2.390625 -10.406250 2.390625q-10.046875 0.000000 -16.203125 -7.656250q-6.156250 -7.671875 -6.156250 -20.328125q0.000000 -12.687500 6.156250 -20.343750q6.156250 -7.671875 16.203125 -7.671875q6.062500 0.000000 10.406250 2.390625q4.343750 2.390625 7.125000 7.218750l0.000000 -8.296875l8.984375 0.000000z" />
            <path
               id="c_fe791a90f5471e2ab20a5ed41a7fa451"
               d="M54.890625 -33.015625l0.000000 33.015625l-8.984375 0.000000l0.000000 -32.718750q0.000000 -7.765625 -3.031250 -11.609375q-3.031250 -3.859375 -9.078125 -3.859375q-7.281250 0.000000 -11.484375 4.640625q-4.203125 4.625000 -4.203125 12.640625l0.000000 30.906250l-9.031250 0.000000l0.000000 -54.687500l9.031250 0.000000l0.000000 8.500000q3.234375 -4.937500 7.593750 -7.375000q4.375000 -2.437500 10.093750 -2.437500q9.421875 0.000000 14.250000 5.828125q4.843750 5.828125 4.843750 17.156250" />
            <path
               id="c_d821beae607506e87470f334d9ff47af"
               d="M45.406250 -46.390625l0.000000 -29.593750l8.984375 0.000000l0.000000 75.984375l-8.984375 0.000000l0.000000 -8.203125q-2.828125 4.875000 -7.156250 7.250000q-4.312500 2.375000 -10.375000 2.375000q-9.906250 0.000000 -16.140625 -7.906250q-6.218750 -7.921875 -6.218750 -20.812500q0.000000 -12.890625 6.218750 -20.796875q6.234375 -7.906250 16.140625 -7.906250q6.062500 0.000000 10.375000 2.375000q4.328125 2.359375 7.156250 7.234375M14.796875 -27.296875q0.000000 9.906250 4.078125 15.546875q4.078125 5.640625 11.203125 5.640625q7.125000 0.000000 11.218750 -5.640625q4.109375 -5.640625 4.109375 -15.546875q0.000000 -9.906250 -4.109375 -15.546875q-4.093750 -5.640625 -11.218750 -5.640625q-7.125000 0.000000 -11.203125 5.640625q-4.078125 5.640625 -4.078125 15.546875" />
            <path
               id="c_0bce5afba2dc6b9024b26277c38ad8e8"
               d="M56.203125 -29.593750l0.000000 4.390625l-41.312500 0.000000q0.593750 9.281250 5.593750 14.140625q5.000000 4.859375 13.937500 4.859375q5.171875 0.000000 10.031250 -1.265625q4.859375 -1.265625 9.656250 -3.812500l0.000000 8.500000q-4.843750 2.046875 -9.921875 3.125000q-5.078125 1.078125 -10.296875 1.078125q-13.093750 0.000000 -20.734375 -7.609375q-7.640625 -7.625000 -7.640625 -20.625000q0.000000 -13.421875 7.250000 -21.296875q7.250000 -7.890625 19.562500 -7.890625q11.031250 0.000000 17.453125 7.109375q6.421875 7.093750 6.421875 19.296875M47.218750 -32.234375q-0.093750 -7.359375 -4.125000 -11.750000q-4.031250 -4.406250 -10.671875 -4.406250q-7.515625 0.000000 -12.031250 4.250000q-4.515625 4.250000 -5.203125 11.968750z" />
          </defs>
          <g
             style="fill: #000000; opacity: 1.000000"
             transform="translate(235.762500,402.925000)scale(0.120000)"
             id="g41645">
            <use
               xlink:href="#c_8e0810ad13fe20a2a87a2619799b154d"
               id="use41647" />
            <use
               xlink:href="#c_0f8c41144cfbf448378cb6fd1cc8e549"
               x="52.099609"
               id="use41649" />
            <use
               xlink:href="#c_6a63bda47b2f3da1cec6aadd80692cfe"
               x="91.308594"
               id="use41651" />
            <use
               xlink:href="#c_4653c6dfde66c7610eae0911760d3490"
               x="119.091797"
               id="use41653" />
            <use
               xlink:href="#c_c438d87e693443c2861ebd6359e6491e"
               x="216.503906"
               id="use41655" />
            <use
               xlink:href="#c_5099edb83619131346ae654950954dea"
               x="279.882812"
               id="use41657" />
            <use
               xlink:href="#c_c438d87e693443c2861ebd6359e6491e"
               x="307.666016"
               id="use41659" />
            <use
               xlink:href="#c_8e0810ad13fe20a2a87a2619799b154d"
               x="371.044922"
               id="use41661" />
            <use
               xlink:href="#c_d41d8cd98f00b204e9800998ecf8427e"
               x="423.144531"
               id="use41663" />
            <use
               xlink:href="#c_4653c6dfde66c7610eae0911760d3490"
               x="454.931641"
               id="use41665" />
            <use
               xlink:href="#c_01d93a582460e35a7945ca50d148ffeb"
               x="552.343750"
               id="use41667" />
            <use
               xlink:href="#c_e3864de5dabf2f8dd9eee74726882ec1"
               x="613.623047"
               id="use41669" />
            <use
               xlink:href="#c_fe791a90f5471e2ab20a5ed41a7fa451"
               x="677.099609"
               id="use41671" />
            <use
               xlink:href="#c_6a63bda47b2f3da1cec6aadd80692cfe"
               x="740.478516"
               id="use41673" />
            <use
               xlink:href="#c_0f8c41144cfbf448378cb6fd1cc8e549"
               x="768.261719"
               id="use41675" />
            <use
               xlink:href="#c_c438d87e693443c2861ebd6359e6491e"
               x="807.470703"
               id="use41677" />
            <use
               xlink:href="#c_d821beae607506e87470f334d9ff47af"
               x="870.849609"
               id="use41679" />
            <use
               xlink:href="#c_0bce5afba2dc6b9024b26277c38ad8e8"
               x="934.326172"
               id="use41681" />
          </g>
        </g>
      </g>
      <g
         id="matplotlib.axis2">
        <g
           id="text2">
          <defs
             id="defs41685">
            <path
               id="c_f15a64fcd463ef4629c48bab42cde24c"
               d="M18.109375 -8.203125l0.000000 29.000000l-9.031250 0.000000l0.000000 -75.484375l9.031250 0.000000l0.000000 8.296875q2.843750 -4.875000 7.156250 -7.234375q4.328125 -2.375000 10.328125 -2.375000q9.968750 0.000000 16.187500 7.906250q6.234375 7.906250 6.234375 20.796875q0.000000 12.890625 -6.234375 20.812500q-6.218750 7.906250 -16.187500 7.906250q-6.000000 0.000000 -10.328125 -2.375000q-4.312500 -2.375000 -7.156250 -7.250000M48.687500 -27.296875q0.000000 -9.906250 -4.078125 -15.546875q-4.078125 -5.640625 -11.203125 -5.640625q-7.140625 0.000000 -11.218750 5.640625q-4.078125 5.640625 -4.078125 15.546875q0.000000 9.906250 4.078125 15.546875q4.078125 5.640625 11.218750 5.640625q7.125000 0.000000 11.203125 -5.640625q4.078125 -5.640625 4.078125 -15.546875" />
            <path
               id="c_6ec8d5749226675394676a5d2a3b468b"
               d="M41.109375 -46.296875q-1.515625 -0.875000 -3.296875 -1.281250q-1.781250 -0.421875 -3.921875 -0.421875q-7.625000 0.000000 -11.703125 4.953125q-4.078125 4.953125 -4.078125 14.234375l0.000000 28.812500l-9.031250 0.000000l0.000000 -54.687500l9.031250 0.000000l0.000000 8.500000q2.843750 -4.984375 7.375000 -7.390625q4.546875 -2.421875 11.046875 -2.421875q0.921875 0.000000 2.046875 0.125000q1.125000 0.109375 2.484375 0.359375z" />
            <path
               id="c_d650c37394b681142a10dfc54356d478"
               d="M48.781250 -52.593750l0.000000 8.406250q-3.812500 -2.109375 -7.640625 -3.156250q-3.828125 -1.046875 -7.734375 -1.046875q-8.750000 0.000000 -13.593750 5.546875q-4.828125 5.531250 -4.828125 15.546875q0.000000 10.015625 4.828125 15.562500q4.843750 5.531250 13.593750 5.531250q3.906250 0.000000 7.734375 -1.046875q3.828125 -1.046875 7.640625 -3.156250l0.000000 8.312500q-3.765625 1.750000 -7.796875 2.625000q-4.015625 0.890625 -8.562500 0.890625q-12.359375 0.000000 -19.640625 -7.765625q-7.265625 -7.765625 -7.265625 -20.953125q0.000000 -13.375000 7.343750 -21.031250q7.359375 -7.671875 20.156250 -7.671875q4.140625 0.000000 8.093750 0.859375q3.953125 0.843750 7.671875 2.546875" />
            <path
               id="c_c48ceabac27bf136feba2f4bf2716ab6"
               d="M2.984375 -54.687500l9.515625 0.000000l17.093750 45.890625l17.093750 -45.890625l9.515625 0.000000l-20.515625 54.687500l-12.203125 0.000000z" />
            <path
               id="c_3fe22c4af425ac970aec982ae9662abe"
               d="M32.171875 5.078125q-3.796875 9.765625 -7.421875 12.734375q-3.609375 2.984375 -9.656250 2.984375l-7.187500 0.000000l0.000000 -7.515625l5.281250 0.000000q3.703125 0.000000 5.750000 -1.765625q2.062500 -1.750000 4.546875 -8.296875l1.609375 -4.093750l-22.109375 -53.812500l9.515625 0.000000l17.093750 42.765625l17.093750 -42.765625l9.515625 0.000000z" />
          </defs>
          <g
             style="fill: #000000; opacity: 1.000000"
             transform="translate(67.000000,270.812500)rotate(-90.0)scale(0.120000)"
             id="g41692">
            <use
               xlink:href="#c_f15a64fcd463ef4629c48bab42cde24c"
               id="use41694" />
            <use
               xlink:href="#c_0bce5afba2dc6b9024b26277c38ad8e8"
               x="63.476562"
               id="use41696" />
            <use
               xlink:href="#c_6ec8d5749226675394676a5d2a3b468b"
               x="125.000000"
               id="use41698" />
            <use
               xlink:href="#c_d650c37394b681142a10dfc54356d478"
               x="163.863281"
               id="use41700" />
            <use
               xlink:href="#c_0bce5afba2dc6b9024b26277c38ad8e8"
               x="218.843750"
               id="use41702" />
            <use
               xlink:href="#c_6a63bda47b2f3da1cec6aadd80692cfe"
               x="280.367188"
               id="use41704" />
            <use
               xlink:href="#c_c48ceabac27bf136feba2f4bf2716ab6"
               x="308.150391"
               id="use41706" />
            <use
               xlink:href="#c_0bce5afba2dc6b9024b26277c38ad8e8"
               x="367.330078"
               id="use41708" />
            <use
               xlink:href="#c_d821beae607506e87470f334d9ff47af"
               x="428.853516"
               id="use41710" />
            <use
               xlink:href="#c_d41d8cd98f00b204e9800998ecf8427e"
               x="492.330078"
               id="use41712" />
            <use
               xlink:href="#c_6a63bda47b2f3da1cec6aadd80692cfe"
               x="524.117188"
               id="use41714" />
            <use
               xlink:href="#c_fe791a90f5471e2ab20a5ed41a7fa451"
               x="551.900391"
               id="use41716" />
            <use
               xlink:href="#c_0f8c41144cfbf448378cb6fd1cc8e549"
               x="615.279297"
               id="use41718" />
            <use
               xlink:href="#c_0bce5afba2dc6b9024b26277c38ad8e8"
               x="654.488281"
               id="use41720" />
            <use
               xlink:href="#c_fe791a90f5471e2ab20a5ed41a7fa451"
               x="716.011719"
               id="use41722" />
            <use
               xlink:href="#c_8e0810ad13fe20a2a87a2619799b154d"
               x="779.390625"
               id="use41724" />
            <use
               xlink:href="#c_6a63bda47b2f3da1cec6aadd80692cfe"
               x="831.490234"
               id="use41726" />
            <use
               xlink:href="#c_0f8c41144cfbf448378cb6fd1cc8e549"
               x="859.273438"
               id="use41728" />
            <use
               xlink:href="#c_3fe22c4af425ac970aec982ae9662abe"
               x="898.482422"
               id="use41730" />
          </g>
        </g>
      </g>
      <g
         id="patch3">
        <path
           style="fill: none; stroke: #000000; stroke-width: 1.000000; stroke-linejoin: round; stroke-linecap: square;  opacity: 1.000000"
           d="M72.000000 388.800000L518.400000 388.800000"
           id="path41733" />
      </g>
      <g
         id="patch4">
        <path
           style="fill: none; stroke: #000000; stroke-width: 1.000000; stroke-linejoin: round; stroke-linecap: square;  opacity: 1.000000"
           d="M72.000000 388.800000L72.000000 43.200000"
           id="path41736" />
      </g>
    </g>
  </g>
  <text
     xml:space="preserve"
     style="font-size:11.19999980999999956px;font-style:normal;font-variant:normal;font-weight:normal;font-stretch:normal;line-height:125%;letter-spacing:0px;word-spacing:0px;fill:#000000;fill-opacity:1;stroke:none;font-family:Arial;-inkscape-font-specification:Arial"
     id="text41744"
     sodipodi:linespacing="125%"
     y="316.64792"
     x="372.34509"
     transform="matrix(0.98448074,-0.17549267,0.17549267,0.98448074,0,0)"><tspan
       sodipodi:role="line"
       id="tspan41746"
       x="372.34509"
       y="316.64792"
       style="font-size:14.40000148999999929px;-inkscape-font-specification:Arial;font-family:Arial;font-weight:normal;font-style:normal;font-stretch:normal;font-variant:normal">brightness, a=0.5</tspan></text>
  <text
     transform="matrix(0.93635398,-0.35105729,0.35105729,0.93635398,0,0)"
     x="364.42737"
     y="339.8407"
     sodipodi:linespacing="125%"
     id="text41752"
     style="font-size:11.19999981px;font-style:normal;font-variant:normal;font-weight:normal;font-stretch:normal;line-height:125%;letter-spacing:0px;word-spacing:0px;fill:#000000;fill-opacity:1;stroke:none;font-family:Arial;-inkscape-font-specification:Arial"
     xml:space="preserve"><tspan
       style="font-size:14.40000153px;font-style:normal;font-variant:normal;font-weight:normal;font-stretch:normal;font-family:Arial;-inkscape-font-specification:Arial"
       y="339.8407"
       x="364.42737"
       id="tspan41754"
       sodipodi:role="line">area, a=0.5</tspan></text>
  <text
     xml:space="preserve"
     style="font-size:11.19999981px;font-style:normal;font-variant:normal;font-weight:normal;font-stretch:normal;line-height:125%;letter-spacing:0px;word-spacing:0px;fill:#000000;fill-opacity:1;stroke:none;font-family:Arial;-inkscape-font-specification:Arial"
     id="text41756"
     sodipodi:linespacing="125%"
     y="340.66159"
     x="322.9975"
     transform="matrix(0.79811639,-0.60250331,0.60250331,0.79811639,0,0)"><tspan
       sodipodi:role="line"
       id="tspan41758"
       x="322.9975"
       y="340.66159"
       style="font-size:14.40000153px;font-style:normal;font-variant:normal;font-weight:normal;font-stretch:normal;font-family:Arial;-inkscape-font-specification:Arial">length, a=1</tspan></text>
  <text
     transform="matrix(0.46987323,-0.8827339,0.8827339,0.46987323,0,0)"
     x="57.765121"
     y="310.12228"
     sodipodi:linespacing="125%"
     id="text41760"
     style="font-size:11.19999981px;font-style:normal;font-variant:normal;font-weight:normal;font-stretch:normal;line-height:125%;letter-spacing:0px;word-spacing:0px;fill:#000000;fill-opacity:1;stroke:none;font-family:Arial;-inkscape-font-specification:Arial"
     xml:space="preserve"><tspan
       style="font-size:14.40000153px;font-style:normal;font-variant:normal;font-weight:normal;font-stretch:normal;font-family:Arial;-inkscape-font-specification:Arial"
       y="310.12228"
       x="57.765121"
       id="tspan41762"
       sodipodi:role="line">saturation, a=1</tspan></text>
</svg>
